<svg viewBox="0 0 28 28" fill="none" xmlns="http://www.w3.org/2000/svg">
	<path d="M17.6139 13.9962C17.6139 15.9893 15.9969 17.6064 14.0037 17.6064C12.0106 17.6064 10.3936 15.9893 10.3936 13.9962C10.3936 12.0031 12.0106 10.3861 14.0037 10.3861C15.9969 10.3861 17.6139 12.0107 17.6139 13.9962ZM14.0037 2C7.38514 2 2 7.38515 2 14.0038C2 20.6224 7.38514 26 14.0037 26C16.4256 26 18.7646 25.278 20.7653 23.9091L20.8029 23.8866L19.1858 22.0063L19.1557 22.0213C17.6139 23.0066 15.8389 23.5331 14.0037 23.5331C8.74647 23.5331 4.46694 19.2535 4.46694 13.9962C4.46694 8.73895 8.74647 4.45942 14.0037 4.45942C19.261 4.45942 23.5406 8.73895 23.5406 13.9962C23.5406 14.6807 23.4654 15.3651 23.3149 16.0495C23.0141 17.2905 22.1491 17.6666 21.4948 17.6139C20.8405 17.5613 20.0733 17.095 20.0658 15.9517V13.9962C20.0658 10.6493 17.3431 7.92667 13.9962 7.92667C10.6493 7.92667 7.92666 10.6493 7.92666 13.9962C7.92666 17.3432 10.6493 20.0658 13.9962 20.0658C15.6208 20.0658 17.1476 19.4265 18.2983 18.2758C18.9677 19.3137 20.0583 19.968 21.2993 20.0658C21.4046 20.0733 21.5174 20.0809 21.6227 20.0809C22.4951 20.0809 23.3601 19.7875 24.0595 19.261C24.7816 18.712 25.3156 17.9223 25.6089 16.9746C25.654 16.8242 25.7443 16.4707 25.7443 16.4707V16.4557C25.9172 15.696 26 14.9364 26 13.9962C26.0075 7.38515 20.6224 2 14.0037 2Z" fill="#0077FF" />
</svg>
